<svg xmlns="http://www.w3.org/2000/svg"><symbol id="facebook" viewBox="0 0 288 288"><path fill="#fff" d="M0 144a144 144 0 1 1 288 .1c0 79.7-64.6 144-144.4 143.9S0 223.4 0 144zm152.9 51.8c0-15.7.1-31.3 0-47 0-1.5.4-2 2-2h21.9c1.1 0 1.6-.3 1.7-1.4.5-5 1.1-9.9 1.6-14.9s.9-10.5 1.6-15.7c.2-1.6-.2-1.9-1.7-1.9h-22.9c-4.1 0-4.2 0-4.1-4.1 0-6.2.1-12.5.4-18.7a7 7 0 0 1 3.9-6.1c2.6-1.3 5.3-1.3 8-1.3h14.4c1.6 0 2-.6 2-2.1V50.8c0-1.3-.3-1.9-1.8-1.9-6.4.1-12.8 0-19.2 0s-14.1 0-21.1 2-13.6 6-17.9 12.5-6.6 16.5-6.9 25.4-.2 15-.2 22.4c0 1.5-.5 1.8-1.8 1.8H97.3c-1.4-.1-1.8.4-1.8 1.7q.1 15.1 0 30.3c0 1.5.5 1.9 1.9 1.9h15c2.2 0 2.2 0 2.2 2.2v93.4c0 2.2 0 2.2 2.2 2.2h34.1c1.6 0 2.1-.4 2.1-2-.1-15.7-.1-31.3-.1-46.9z"/></symbol><symbol id="youtube" viewBox="0 0 288 288"><g fill="#fff"><path d="M288 144.5c-.5 79.7-65.4 144-144.7 143.5S-.4 222.7 0 143.5 65.4-.6 144.7 0 288.5 65.3 288 144.5zm-78.7 61c9.8-.5 17-5.5 20.3-15.1 1.4-4 3.5-83.5-.1-92.8s-9.5-13.2-18.4-14.5c-3.5-.5-89.9-2.8-129.6-.6-14.1.8-21.2 6.9-24.8 20.7-.6 2.2-.4 78 1.6 87s8.2 12.6 16.2 14.4c4.5 1 116.5 1.8 134.8.9z"/><path d="M120.2 120.2l47.5 23.8-47.5 23.8z"/></g></symbol><symbol id="instagram" viewBox="0 0 288 288"><g fill="#fff"><path d="M0 143.5C.3 63.6 65-.6 144.5 0S288.3 65 288 144.3 222.5 288.5 143.2 288-.3 222.8 0 143.5zm184.8 86.3c24.8-1.1 44.2-19.8 44.9-44.4q1.2-41.7 0-83.4a45 45 0 0 0-43.4-44.1c-28.3-1-56.7-1-84.9 0a44.9 44.9 0 0 0-43.6 44c-.8 27.9-.8 55.9 0 83.8.7 22.4 16.3 39.8 38.5 43 15.5 2.2 74.7 1.7 88.5 1.1z"/><path d="M73 143.5c0-12.9-1.1-25.9.2-38.7 2.1-20.9 10.5-30.1 31.2-31.4a687 687 0 0 1 78.6 0c20.8 1.2 29.8 10.4 31.1 31.3a676.6 676.6 0 0 1 0 78c-1.3 21.1-10.4 30.2-31.6 31.4-25.7 1.6-51.7 1.3-77.5.2-23.6-1.1-31.7-15.9-32.3-36.2-.4-11.5-.1-23.1-.1-34.6zm26.1.1a44.7 44.7 0 1 0 45.1-44.5 44.5 44.5 0 0 0-45.1 44.5zm101.3-46.5a10.3 10.3 0 1 0-10.2 10.6 10.1 10.1 0 0 0 10.2-10.6z"/><path d="M172.7 144.1a29 29 0 0 1-57.9-.4c0-16.5 12.9-29.1 29.4-28.9s28.6 13 28.5 29.3z"/></g></symbol></svg>