<svg xmlns="http://www.w3.org/2000/svg" width="4in" height="3.2in" viewBox="0 0 288 228.3"><path fill="#00ade5" d="M148.3 0l2.9.3a74.3 74.3 0 0 1 57.2 37.2 71.9 71.9 0 0 1 8.7 25.2c.4 2.7.6 5.5.8 8.3a67.6 67.6 0 0 1-2.1 21 71.9 71.9 0 0 1-14.7 29 72.8 72.8 0 0 1-43.8 25.7 84.3 84.3 0 0 1-10.1 1.1 71.5 71.5 0 0 1-38.4-8.8 72.9 72.9 0 0 1-20.2-16 73.7 73.7 0 0 1-14.9-25.9 75.2 75.2 0 0 1-3.5-17.6 74.3 74.3 0 0 1 5.2-33.3A70 70 0 0 1 88 25.7 73.2 73.2 0 0 1 135.2.5l4.5-.5zm16.4 67.8c2.4-.3 4.7-.5 6.9-.9 5-.7 9.6-2.6 14.3-4.5a84.1 84.1 0 0 1 11.9-4.2c1.2-.2 1.2-.2.8-1.4a55.6 55.6 0 0 0-12.5-21.7 59.3 59.3 0 0 0-18.4-13.4 56.2 56.2 0 0 0-22.4-5 54.3 54.3 0 0 0-9 .5A57.4 57.4 0 0 0 93 47.8a57.7 57.7 0 0 0-6 31.4 55.4 55.4 0 0 0 6.2 21 54.9 54.9 0 0 0 14.2 17.6 56 56 0 0 0 34.9 13.3 52.4 52.4 0 0 0 12.5-1 57.2 57.2 0 0 0 21.9-9.2 54.6 54.6 0 0 0 11.4-10.6 56.4 56.4 0 0 0 10.7-19.7c.2-.6 0-.8-.6-.9a60.9 60.9 0 0 1-7.3-2.1l-12.2-4.7a38.8 38.8 0 0 0-15.1-2.7 7.2 7.2 0 0 0-7.2 5.6 66 66 0 0 1-5.8 14.3c-4 7.3-9.5 13-17.1 16.5a29.8 29.8 0 0 1-4.5 1.6c-2 .5-3.4-1-3-3.1a12.1 12.1 0 0 1 .5-1.4c1.2-3.2 2.3-6.4 2.3-9.9a78.9 78.9 0 0 0-.6-9.7 32.6 32.6 0 0 1 1-12.8c.7-2.1 1.4-4.3 2-6.5a3.7 3.7 0 0 0-.1-1.8c-.4-1.6-.9-3.2-1.4-4.8A30.2 30.2 0 0 1 128 57c.2-2.8.4-5.6.7-8.3a27.7 27.7 0 0 0-1.8-13.4c-.3-.9-.6-1.7-.8-2.5a2.2 2.2 0 0 1 1.8-3.1 7.5 7.5 0 0 1 2.1.2 33.4 33.4 0 0 1 8.3 4 39.8 39.8 0 0 1 13 15.2 61.5 61.5 0 0 1 5 12.9 7 7 0 0 0 4.5 5.1 24.4 24.4 0 0 0 3.9.7zm-16.9 9.4a1.8 1.8 0 0 0-1.9-1.8 1.8 1.8 0 0 0-1.8 1.8 1.8 1.8 0 0 0 1.9 1.9 1.8 1.8 0 0 0 1.8-1.9zm0-6.6a1.7 1.7 0 0 0-1.8-1.8 1.7 1.7 0 0 0-1.9 1.8 1.9 1.9 0 0 0 3.7 0zm3-.1a1.8 1.8 0 0 0 1.8 1.9 1.8 1.8 0 1 0 0-3.6 1.6 1.6 0 0 0-1.8 1.7zm0 6.7a1.8 1.8 0 1 0 3.6 0 1.8 1.8 0 0 0-3.6 0z"/><path fill="#fff" d="M99.5 228.3a8 8 0 0 1-4.9-2.9c-.3-.4-.6-.3-1.1-.1a14.6 14.6 0 0 1-15.9-.8 13.9 13.9 0 0 1-6-10.7 14.8 14.8 0 1 1 29.6-2.2 13.8 13.8 0 0 1-3.8 10.6c-.5.7-.5 1.1.1 1.6l4.9 4.2-.6.3zM86 217.6v-.3l2.1-.3a6.4 6.4 0 0 1 5.3 2.5c.8.9.9.8 1.6-.1a11.2 11.2 0 0 0 2.3-8.1 11 11 0 0 0-17-8.4c-4.1 2.5-5.6 6.5-5 11.2.8 7.4 9.2 11.9 15.7 8.5l.5-.4a19.2 19.2 0 0 0-5.5-4.6zm202-30.1h-10.2c-.8 0-.8-.5-.8-1v-14.6c0-1.3.1-2.7 0-4a.8.8 0 0 1 .9-.9H288v2.5h-7.2c-.7 0-1.1.2-1 1v3.5c-.1.7.2 1 .9 1h6.1c1.1 0 1.1 0 1.1 1.1v.3c.1.9-.3 1.2-1.1 1.1h-5.9c-.8 0-1.2.2-1.1 1.1v5.4c0 .8.2 1 1 1h7.2zm-288-12a12.7 12.7 0 0 1 3.3-6 11.2 11.2 0 0 1 11.8-2 1.3 1.3 0 0 1 .9 1.5 14.6 14.6 0 0 0 0 2.1c-2.6-1.8-5.3-2.5-8.2-1.4a7.7 7.7 0 0 0-3.9 3.2 8.4 8.4 0 0 0 .9 10.1 8.1 8.1 0 0 0 3.4 2.1 6.8 6.8 0 0 0 4 .2c1.2-.4 2.4-1.1 3.7-1.6a24.3 24.3 0 0 1 0 2.7c0 .2-.5.5-.8.6a10.7 10.7 0 0 1-14.9-7c-.1-.2-.1-.5-.2-.7zm237.7 21.8c.4 2.3.9 4.7 1.3 7l4.2 21.2c.2 1.1.2 1.1-1 1.1h-.5c-2.5 0-2 .5-2.5-2.1-1-5.2-1.9-10.4-2.8-15.5a2 2 0 0 0-.1-.7c-2.9 6.4-5.6 12.6-8.3 18.8h-.3c-2.7-6.3-5.4-12.5-8.2-18.7h-.2c-.2 1.3-.5 2.6-.7 3.9-.8 4.4-1.6 8.8-2.3 13.2-.1.7-.4 1-1.1 1h-2c-.7 0-.9-.2-.8-.9.8-3.9 1.5-7.7 2.3-11.6s2.1-10.7 3.1-16.1l.3-.8h.2c3.1 7.2 6.3 14.4 9.5 21.9 3.3-7.4 6.4-14.7 9.6-21.9zm-62.4 29.3h-4c-.2 0-.5-.5-.7-.7l-7.3-10.4-.3-.5-1.1-.2c-.1 0-.3.5-.3.7-.1 3.3 0 6.6-.1 9.9 0 1.2 0 1.2-1.2 1.2s-2.5.1-2.5-2.5v-24.6c0-1.3 0-1.3 1.3-1.3a67.9 67.9 0 0 1 7.8.4c3.8.6 6.2 3.3 6.5 7.4a7.8 7.8 0 0 1-4.8 7.9l-1.8.5 8.6 12zm-13.7-20v4.2c0 .4 0 .8.5.8s3.6 0 5.2-.8a4.1 4.1 0 0 0 2.6-4.1 4.2 4.2 0 0 0-2.5-4.2 11.9 11.9 0 0 0-5.3-.9c-.5 0-.5.5-.5.9zm-117 20l13.5-29.4h.2l13.5 29.4h-3.7c-.2 0-.5-.4-.6-.7-.8-1.8-1.7-3.5-2.4-5.3a1.4 1.4 0 0 0-1.5-1H52.7a1.3 1.3 0 0 0-1.3.8c-.7 1.7-1.5 3.3-2.2 4.9s-.9 1.5-2 1.4zm13.8-21.1h-.3l-4.7 10.7H63zm82.8-8.3l13.5 29.4h-3.8c-.2 0-.4-.5-.5-.7-.9-1.9-1.8-3.7-2.6-5.6a1 1 0 0 0-1.1-.7h-11.2a1.2 1.2 0 0 0-1.2.8c-.8 1.9-1.7 3.7-2.5 5.5a1.1 1.1 0 0 1-1.1.8h-3.2l13.5-29.5zm-4.9 18.9h9.6c-1.6-3.7-3.2-7.2-4.8-11zm-30.8-7.8c0-3 0-6-.1-9 0-.8.3-1.1 1-1.1a6.7 6.7 0 0 0 2 0c.6 0 .8.3.8.9v16.3a13.2 13.2 0 0 0 .4 3.4c.9 3.7 3.7 5.5 7.5 4.9a5.7 5.7 0 0 0 4.9-4.6 19.2 19.2 0 0 0 .5-4.1c.1-5.2.1-10.4.1-15.6 0-1.1 0-1.2 1.1-1.2h1.9c.3 0 .5.4.7.6s0 .3 0 .4V216a12 12 0 0 1-1.7 6.4 8.9 8.9 0 0 1-6.6 4.6c-3.9.7-7.3-.1-10-3.2a9.9 9.9 0 0 1-2.5-6.8c-.1-2.9 0-5.8 0-8.7zm103.5-.1c0 2.8.1 5.7 0 8.5s-1.2 6.4-4.1 8.6c-5 3.8-15.1 2.6-16.6-7a21.7 21.7 0 0 1-.1-2.6v-16.3c0-1.1 0-1.2 1.1-1.2a8.6 8.6 0 0 0 1.6 0c.8 0 1 .3 1 1.1v16.1a31.1 31.1 0 0 0 .4 3.2c.9 3.9 3.8 5.7 7.6 5.1s4.7-2.5 5.2-5.8a24.5 24.5 0 0 0 .2-2.7v-15.6c0-1.4 0-1.4 1.3-1.4a7.5 7.5 0 0 0 1.5 0c.7 0 1 .3.9 1zm-107.9-20c-1.9-4.7-3.7-9.5-5.5-14.2h-.2c-1.9 4.7-3.7 9.5-5.5 14.2h-.3c-2.8-7-5.6-14-8.4-21.2h2.6c.3.1.5.5.7.9l4.6 11.8.5 1.2h.3l5.4-14.2h.3c1.9 4.8 3.7 9.6 5.6 14.6l1.6-3.9 3.6-9.4a1.3 1.3 0 0 1 1.6-1h1.8c-2.9 7.2-5.6 14.2-8.4 21.2zm99.3-13.7l-5.9 13.4h-.3l-5.9-13.5c-.5 2.7-.9 5.2-1.4 7.7s-.6 3.2-.8 4.8-.3.7-.9.7c-2.5 0-2.1.2-1.7-2l3.6-18.4c.1-.3.1-.5.2-.8h.2c2.3 5.1 4.5 10.2 6.9 15.6 2.3-5.3 4.5-10.5 6.8-15.6h.2c.1.5.3 1 .4 1.6l3.6 18.6c.2.7.1 1-.7 1s-1.9.1-2.2-1.9-1.3-7-1.9-10.4a4.5 4.5 0 0 0-.2-.8zm56.4-1.5v13.5c0 1-.1 1.1-1.1 1.1s-1.8.2-1.8-1.8c0-6.1 0-12.2.1-18.4v-1.1h.3l14.9 15.6v-13.7c0-1.1 0-1.2 1.2-1.2s1.6 0 1.6 1.6v19.6h-.3L257 172.9zM80.6 187.6h-2.7c-.3 0-.6-.4-.9-.7-1.5-2.3-3.1-4.5-4.6-6.7a2.1 2.1 0 0 0-.4-.6l-.9-.5a3.2 3.2 0 0 0-.3.9v6.5c0 1.1-.1 1.2-1.2 1.2s-1.7.2-1.7-1.8v-17.7c0-1.1.1-1.2 1.2-1.2s3.4 0 5 .2a5.2 5.2 0 0 1 4.9 4.1 5.6 5.6 0 0 1-1.8 6.2 14.8 14.8 0 0 1-2.5 1.4l6.1 8.4zm-9.8-14.5a26.1 26.1 0 0 0 0 2.8c0 .2.4.7.6.7a20.8 20.8 0 0 0 3.6-.6c1.3-.4 1.7-1.6 1.7-2.9a3 3 0 0 0-1.6-2.9 7.8 7.8 0 0 0-3.7-.6c-.5 0-.6.3-.6.7zm166.2 5.7l6.3 8.7h-3.1a1.6 1.6 0 0 1-.7-.7l-4.9-7.1-.3-.4a1.1 1.1 0 0 0-.8-.2c-.1 0-.3.4-.3.6v6.7c0 1.2 0 1.2-1.2 1.2h-.6c-.7 0-1-.3-1-1V168c0-.7.2-1 .9-1s3.4 0 5.1.2a5.6 5.6 0 0 1 5.3 5.1 5.8 5.8 0 0 1-4.1 6.3zm-3.8-5.7v2.8c0 .5.1.8.6.7a19.9 19.9 0 0 0 3.4-.5 3 3 0 0 0 2-3 2.9 2.9 0 0 0-2-3 16.4 16.4 0 0 0-3.2-.5c-.6-.1-.8.2-.8.8zm-68.3 5.7c2 2.9 4.1 5.7 6.1 8.5a3.1 3.1 0 0 1-3.9-.9l-4.8-6.7a3.1 3.1 0 0 0-.9-.7 2.5 2.5 0 0 0-.4 1.1v6.5c0 .7-.2 1-.9 1s-1.8.1-1.8-1.8v-17.6c0-1.1 0-1.2 1.1-1.2l5 .2a5.5 5.5 0 0 1 5 4.5 5.8 5.8 0 0 1-2.7 6.4zM161 173v2.9c0 .4.2.8.7.7a16.5 16.5 0 0 0 3.2-.4 3 3 0 0 0 2.1-3.2 2.9 2.9 0 0 0-2.3-3 13.5 13.5 0 0 0-2.9-.4c-.6-.1-.8.2-.8.7zm-42.7-6.7c3.2 7 6.5 14 9.7 21.2h-2.7c-.2 0-.4-.4-.5-.7a37.3 37.3 0 0 1-1.6-3.5 1.3 1.3 0 0 0-1.2-.8h-7.6a1 1 0 0 0-1.1.7l-1.6 3.6a1.2 1.2 0 0 1-1.3.8h-2.1c3.3-7.2 6.5-14.2 9.8-21.2zm3.3 13.6l-3.4-7.8-3.4 7.8zm-66.3-13.6l9.7 21.2h-2.6c-.3 0-.5-.4-.6-.7a37.3 37.3 0 0 1-1.6-3.5 1.2 1.2 0 0 0-1.2-.8h-7.6a1.2 1.2 0 0 0-1.2.8c-.4 1.1-1 2.3-1.5 3.5a1.3 1.3 0 0 1-1.2.8h-2.2c3.3-7.3 6.6-14.3 9.8-21.3zm3.3 13.6l-3.3-7.5h-.2l-3.3 7.5zm168.9 7.6h-2.6c-.3 0-.5-.3-.6-.6s-1.2-2.4-1.7-3.6a1.1 1.1 0 0 0-1.2-.8h-7.6a1 1 0 0 0-1.1.8c-.5 1.2-1.1 2.3-1.6 3.5a1.1 1.1 0 0 1-1.2.8h-2.1l9.7-21.3h.3zm-9.9-15.4c-1.1 2.7-2.2 5.2-3.3 7.7h6.7zm-74.5 5.2v-9.1c0-1.1 0-1.2 1-1.2h9.1c.7 0 1.1.3 1 1v.6c.1.8-.3 1-1.1 1h-6.3c-.7 0-1 .2-1 .9v3.6c0 .7.2 1 1 1h6.3c.7-.1.9.2.9.9v.5c0 1-.1 1.1-1.2 1.1h-6.1c-.7 0-.9.3-.9.9v5.5c0 .8.2 1 1 1h6.1c1.3 0 1.3 0 1.3 1.3v.5c0 .5-.2.8-.8.8h-9.5c-.8 0-.8-.4-.8-1zm-111.4-.1c0-3 0-6.1-.1-9.1 0-.8.3-1.1 1.1-1.1h9.1c.7 0 1.1.2 1 1v.5c0 1.1 0 1.1-1.1 1.1h-6.2c-.9 0-1.2.3-1.1 1.1s0 2.1 0 3.2 0 1.2 1.1 1.2h6c.8 0 1 .3 1 1.1s0 1.5-1.5 1.5h-5.6c-.7 0-1 .2-1 1v5.5c0 .7.3.9 1 .9h6.4c.8 0 1.1.3 1 1.1s.1.6 0 .8-.5.6-.7.6h-9.7c-.7 0-.7-.5-.7-1zm150.8 35.2v13.1c0 1.1 0 1.1-1.1 1.1h-1.5c-.8 0-1.2-.2-1.2-1.1.1-8.8.1-17.5.1-26.3 0-1 0-1.1 1.1-1.1h1.5c1.1.1 1.1.1 1.1 1.2zm-50.2-33.8c0-2.7 0-5.3.1-8 0-.8-.3-1-1.1-1h-2.8c-.6 0-.9-.2-.9-.9s-.1-1.7 1.6-1.7h9.3c1.5 0 1.5 0 1.4 1.5v.3c.1.6-.2.8-.8.8h-2.8c-.9-.1-1.1.2-1.1 1.1v15.6c0 .4-.2 1.1-.3 1.1a5.9 5.9 0 0 1-2.3 0c-.1 0-.2-.6-.2-.9-.1-2.6-.1-5.3-.1-7.9zm-112.5-1.3v-9.2c0-1 0-1 1.1-1.1s1.6 0 1.6 1.6v15.3c0 1.1 0 1.1 1.2 1.1h3.8c1.2 0 1.2 0 1.2 1.2s0 1.4-1.4 1.4H21c-1.2 0-1.2 0-1.2-1.3zm229.3.1v9.1c0 .8-.2 1.1-1 1.1s-1.7 0-1.7-1.7v-17.7c0-1.1 0-1.2 1.1-1.2s1.6 0 1.6 1.6zm1.9 22.8l-1.3 2.9h-.3l-1.4-3.2c-.2.8-.3 1.5-.4 2.1a1.9 1.9 0 0 1-.2.8.9.9 0 0 1-.5.3c-.1 0-.3-.4-.3-.5.3-1.7.7-3.3 1-5h.2l1.8 3.8 1.7-3.9c.2.2.3.3.3.4l.9 4.6a2.1 2.1 0 0 1-.3.7c-.2-.2-.5-.3-.6-.6a15.7 15.7 0 0 1-.4-2.3zm-6.5.6v-1.2c0-.6.1-1.3-.9-1.2s-.2-.3-.4-.4.3-.4.5-.4h2.4c.2 0 .3.2.5.4s-.3.4-.5.4-.7.5-.7 1v3c0 .2-.3.5-.5.7l-.4-.7z"/></svg>